<svg width="670" height="671" viewBox="0 0 670 671" fill="none" xmlns="http://www.w3.org/2000/svg">
<mask id="mask0_14_104" style="mask-type:alpha" maskUnits="userSpaceOnUse" x="0" y="0" width="670" height="671">
<circle cx="335" cy="335.5" r="335" fill="#D9D9D9"/>
</mask>
<g mask="url(#mask0_14_104)">
<rect y="0.5" width="670" height="670" fill="white"/>
<path d="M63.6935 509.536C32.6515 509.536 0.000320435 521 0.000320435 521L0 671H669.999V506.507C669.999 506.507 655.076 514.584 632.5 515.594C609.924 516.603 592.514 509.536 578 509.536C563.486 509.536 553.093 515.594 530.517 515.594C507.94 515.594 497.723 506.507 482 506.507C466.277 506.507 432.961 506.254 418.447 506.507C403.933 506.759 376.946 521 358 521C339.054 521 303.959 509.536 290.655 509.536C277.351 509.536 268.962 515.594 248 515.594C227.038 515.594 207.208 509.536 191.082 509.536C174.956 509.536 153.461 521 132.5 521C111.538 521 94.7356 509.536 63.6935 509.536Z" fill="#6DB1D5"/>
<path d="M301.001 323C253.652 289.19 240.377 285.559 246.001 313C284.501 351 317.5 354 356.001 380.5L301.001 323Z" fill="#192A44"/>
<path d="M615.501 409C615.501 392.5 535.5 365 489.5 382.5C524.238 426.923 536.872 442.665 552.001 465C545.001 402 615.501 413 615.501 409Z" fill="#192A44"/>
<path d="M489.001 584.807C430.432 570.253 414.753 546.462 400 492C394.443 465.794 406.15 464.744 449.5 483.5C474.642 494.601 491.474 516.391 526.5 582.111C514.675 583.401 502.108 584.29 489.001 584.807Z" fill="#192A44"/>
<path d="M360.065 521C353 530.5 363 562 344.5 574C325.08 575.876 306.5 546 308 515.5C312.267 483.5 317 474 328.736 454C337.336 473.769 347.307 495.966 360.065 521Z" fill="#192A44"/>
<path d="M285 365C350.155 416.414 381.025 444.728 400 492C414.752 546.462 430.432 570.253 489.001 584.807C459.479 585.973 427.213 585.255 394.501 583C381.009 560.584 369.736 539.977 360.065 521C347.307 495.966 337.336 473.769 328.736 454C312.448 416.556 301.077 387.819 285 365Z" fill="#94B8D1"/>
<path d="M246.001 313C249.02 323.495 273 349.5 285 365C350.155 416.414 381.026 444.728 400 492C394.443 465.794 406.151 464.744 449.5 483.5C474.642 494.601 491.474 516.391 526.5 582.111C555.986 578.893 580.859 573.18 598.001 564.5C583.107 526.504 572.879 504.674 552.001 465C536.872 442.665 524.238 426.923 489.5 382.5C405.5 286.02 326.5 281.5 301.001 323L356.001 380.5C317.5 354 284.501 351 246.001 313Z" fill="#507591"/>
<path d="M388.775 375.008C393.275 383.008 385.275 389.508 382.775 389.508C380.775 389.508 371.275 377.508 373.275 375.008C377.775 369.508 384.275 368.508 388.775 375.008Z" fill="#0F1935"/>
<path d="M243.5 130.5L106 96.5L122.5 270L261.5 307L243.5 130.5Z" fill="#6DB1D5"/>
<path d="M261.5 307C254.471 238.072 250.529 199.428 243.5 130.5L399 65L415 242.5L261.5 307Z" fill="#5099BE"/>
<path d="M261 32L106 96.5L243.5 130.5L399 65L261 32Z" fill="#C2ECF6"/>
</g>
</svg>
